# xmcd CD database file
#
# Track frame offsets:
#	150
#	44734
#	70230
#	103112
#	133231
#	161598
#	191484
#	228772
#	250092
#
# Disc length: 3853 seconds
#
# Revision: 0
# Processed by: cddbd v1.5.2PL0 Copyright (c) Steve Scherf et al.
# Submitted via: CDex 1.77
#
DISCID=7c0f0b09
DTITLE=Michael Felberbaum - Lego
DYEAR=2013
DGENRE=Jazz
TTITLE0=Flow
TTITLE1=Variations
TTITLE2=Horse
TTITLE3=A
TTITLE4=Nostalgia
TTITLE5=Now
TTITLE6=Mint
TTITLE7=A Little bigger
TTITLE8=Lego
EXTD=YEAR: 2013
EXTT0=
EXTT1=
EXTT2=
EXTT3=
EXTT4=
EXTT5=
EXTT6=
EXTT7=
EXTT8=
PLAYORDER=
